<?xml version="1.0" encoding="UTF-8"?>
<svg version="1.1" xmlns="http://www.w3.org/2000/svg" width="318" height="318">
<path d="M0 0 C10.74099217 7.33531172 14.17908042 24.91162081 16.60302734 37.00976562 C17.84375717 43.65544383 18.95601187 50.32077821 20 57 C20.36351563 55.47632812 20.36351563 55.47632812 20.734375 53.921875 C27.32297782 26.67702218 27.32297782 26.67702218 35 19 C37.25 18.4375 37.25 18.4375 40 19 C58.33507663 35.04319205 57.41228997 74.158356 60 97 C60.36351562 95.90042969 60.72703125 94.80085938 61.1015625 93.66796875 C69.70469601 68.14765199 69.70469601 68.14765199 80 63 C84.11999905 62.53181829 87.07716029 62.88817741 90.4375 65.4609375 C99.49705301 74.38459721 102.42406383 87.20450268 106 99 C106.09498779 98.03513672 106.18997559 97.07027344 106.2878418 96.07617188 C111.51534056 43.58740666 111.51534056 43.58740666 120 26 C120.49113281 24.97519531 120.49113281 24.97519531 120.9921875 23.9296875 C122.60373338 21.06619688 123.87864058 20.04906019 126.9375 18.8125 C130 19 130 19 132.625 20.9375 C137.50231306 27.22666684 139.7971631 33.96640035 141.6875 41.625 C141.89955078 42.44484375 142.11160156 43.2646875 142.33007812 44.109375 C143.41980776 48.38579036 144.35639987 52.62917716 145 57 C146.07716733 52.22619023 147.11885889 47.45127162 148.078125 42.65234375 C154.64721639 10.2682705 154.64721639 10.2682705 164 1 C167.29257827 -0.64628913 169.3517243 -0.53827018 173 0 C184.74666051 7.95823537 187.28896198 28.11459574 190 41 C190.45503906 39.77796875 190.91007813 38.5559375 191.37890625 37.296875 C196.78700009 22.89643744 196.78700009 22.89643744 201 20 C203.92607595 19.90856013 204.88103865 20.88847373 207 22.875 C229.73404463 58.39694474 221.90985195 128.55262432 213.53222656 167.68115234 C210.0892335 182.68186248 210.0892335 182.68186248 205 187 C202.5 187.625 202.5 187.625 200 187 C196.54265573 183.44387447 194 180.02186427 194 175 C193.34 175 192.68 175 192 175 C191.98582031 175.75539062 191.97164062 176.51078125 191.95703125 177.2890625 C191.17363114 195.37078386 187.47974449 219.88900782 174.80859375 233.71484375 C172.53796373 235.32831519 170.75887024 235.7311644 168 236 C159.99671512 232.48636274 157.00853197 224.669955 154 217 C153.24967219 214.54981304 152.53116475 212.08967004 151.84375 209.62109375 C151.49505859 208.37642334 151.14636719 207.13175293 150.78710938 205.84936523 C150.52736328 204.90907471 150.26761719 203.96878418 150 203 C149.81207886 204.4708606 149.81207886 204.4708606 149.62036133 205.97143555 C141.78697766 266.8103248 141.78697766 266.8103248 131 276 C128.0625 276.625 128.0625 276.625 125 276 C117.53762573 269.6296805 115.00185869 258.28134483 113 249 C111.91191802 253.78559133 110.8766474 258.56973734 109.95703125 263.390625 C101.52107538 307.0532001 101.52107538 307.0532001 88.9375 316.6875 C85.53392609 318.20824579 83.6821546 318.61369243 80 318 C71.96198112 314.23752308 67.69299475 306.3028172 64.62792969 298.29052734 C58.98841435 282.53865149 53.23435491 263.84419195 54 247 C53.34 247 52.68 247 52 247 C51.9175 248.0725 51.835 249.145 51.75 250.25 C50.61369516 259.1510546 47.51777655 269.48222345 41 276 C37.34204443 276.49881212 35.54959008 276.36192517 32.4375 274.3125 C21.67561487 261.76269785 20.29013172 238.4155071 18.1875 222.75 C18.06358887 221.83492676 17.93967773 220.91985352 17.81201172 219.97705078 C17.02680364 213.6294703 16.86843671 207.39197552 17 201 C16.34 201 15.68 201 15 201 C14.9071875 202.546875 14.9071875 202.546875 14.8125 204.125 C13.54349521 214.0655375 9.38185489 225.19143236 3 233 C-1.30667801 236.01733305 -1.30667801 236.01733305 -4.5 235.9375 C-11.08396544 233.46851296 -13.67388233 228.69385013 -16.5234375 222.63671875 C-22.05911812 209.00254242 -24.34653364 194.52177645 -26.59863281 180.05273438 C-26.9156157 177.94604616 -26.9156157 177.94604616 -28 176 C-28.52400391 177.06541016 -28.52400391 177.06541016 -29.05859375 178.15234375 C-29.51363281 179.07144531 -29.96867187 179.99054688 -30.4375 180.9375 C-30.88996094 181.85402344 -31.34242187 182.77054688 -31.80859375 183.71484375 C-33 186 -33 186 -34 187 C-36.25 187.4375 -36.25 187.4375 -39 187 C-51.57589819 176.26447715 -51.56775394 149.47969198 -52.79328918 134.19889832 C-53.12144637 129.12058891 -53.18148774 124.05250026 -53.203125 118.96484375 C-53.21013931 117.85556519 -53.21715363 116.74628662 -53.22438049 115.60339355 C-53.24177297 112.04805391 -53.24823129 108.49288061 -53.25 104.9375 C-53.25067474 103.72546906 -53.25134949 102.51343811 -53.25204468 101.26467896 C-53.23676212 84.0212391 -53.1617547 67.00617819 -50 50 C-49.81775879 49.01870117 -49.63551758 48.03740234 -49.44775391 47.02636719 C-48.880386 44.11131905 -48.26967414 41.21137543 -47.625 38.3125 C-47.34813354 37.06327759 -47.34813354 37.06327759 -47.06567383 35.78881836 C-45.70039887 30.31244195 -43.66472586 25.36584043 -40 21 C-37.1875 20 -37.1875 20 -35 20 C-30.74332551 24.53568341 -28.83047319 28.41720213 -27.1875 34.375 C-26.97158203 35.11105469 -26.75566406 35.84710938 -26.53320312 36.60546875 C-26.00887824 38.39982502 -25.50253711 40.19942024 -25 42 C-24.79020508 41.08057617 -24.79020508 41.08057617 -24.57617188 40.14257812 C-22.14374122 29.68547269 -19.73202727 19.38173204 -14.875 9.75 C-14.55080078 9.10224609 -14.22660156 8.45449219 -13.89257812 7.78710938 C-10.47874697 1.39569729 -7.37775867 -1.0354749 0 0 Z " fill="#FFFFFF" transform="translate(76,0)"/>
<path d="M0 0 C2.67891936 0.17283351 3.72415833 0.6938228 5.52734375 2.6953125 C7.23219452 5.36338135 7.8993762 7.67207927 8.625 10.75 C8.86476563 11.73484375 9.10453125 12.7196875 9.3515625 13.734375 C12.89916643 31.60062129 14.28812461 56.69205885 5 73 C4.01 73.99 4.01 73.99 3 75 C0.51171875 74.89453125 0.51171875 74.89453125 -2 74 C-8.72885394 64.30313194 -8.36437432 49.50595221 -8.3125 38.25 C-8.30903564 37.02587402 -8.30557129 35.80174805 -8.30200195 34.54052734 C-7.98388466 7.98388466 -7.98388466 7.98388466 0 0 Z " fill="#FFFFFF" transform="translate(307,58)"/>
<path d="M0 0 C2.25 0 2.25 0 5 1 C15.93521758 15.5308654 13.05696758 41.3648334 10.703125 58.3125 C9.59086582 64.14568146 8.30821955 70.69178045 4 75 C1.625 75.1875 1.625 75.1875 -1 74 C-7.62868297 64.20402823 -7.35054282 51.19317253 -7.31567383 39.84008789 C-7.31251963 37.70081245 -7.33604087 35.56293332 -7.36132812 33.42382812 C-7.41482095 21.83065568 -6.78679567 9.82915235 0 0 Z " fill="#FFFFFF" transform="translate(7,58)"/>
</svg>
